<svg width="67" height="40" viewBox="0 0 67 40" fill="none" xmlns="http://www.w3.org/2000/svg">
<g clip-path="url(#clip0_15_6)">
<path d="M18.926 14.4936C18.926 15.3137 19.0149 15.9786 19.1699 16.4661C19.3667 17.0147 19.6037 17.548 19.8789 18.0617C19.9898 18.2389 20.034 18.4162 20.034 18.5715C20.034 18.7929 19.9012 19.0146 19.6131 19.2363L18.217 20.1671C18.0175 20.3001 17.818 20.3665 17.6405 20.3665C17.4191 20.3665 17.1974 20.2557 16.9757 20.0562C16.6771 19.7353 16.41 19.3865 16.178 19.0146C15.9563 18.6382 15.7346 18.2167 15.491 17.7072C13.7623 19.7459 11.5903 20.7655 8.97542 20.7655C7.11398 20.7655 5.62901 20.2335 4.543 19.1699C3.45725 18.1059 2.90326 16.6876 2.90326 14.9148C2.90326 13.0311 3.5681 11.502 4.91999 10.3495C6.27163 9.19712 8.06692 8.62091 10.3495 8.62091C11.103 8.62091 11.8787 8.68732 12.6986 8.79817C13.5187 8.90901 14.3608 9.08627 15.2473 9.28575V7.66797C15.2473 5.98352 14.8925 4.80915 14.2055 4.12209C13.4965 3.43503 12.2996 3.10248 10.5932 3.10248C9.81751 3.10248 9.01986 3.19137 8.19973 3.39084C7.37986 3.59006 6.58195 3.83398 5.80627 4.14431C5.45176 4.29934 5.18587 4.38797 5.03058 4.43241C4.87555 4.47686 4.7647 4.49882 4.67607 4.49882C4.36574 4.49882 4.21071 4.27712 4.21071 3.81176V2.72575C4.21071 2.37124 4.25515 2.10535 4.36574 1.95032C4.47659 1.79503 4.67607 1.63999 4.9864 1.48496C5.76208 1.08601 6.6928 0.753459 7.77855 0.487576C8.86483 0.199472 10.0172 0.0666612 11.2361 0.0666612C13.8735 0.0666612 15.8016 0.664831 17.0426 1.86169C18.2614 3.0583 18.8821 4.87555 18.8821 7.31346V14.4936H18.9265H18.926ZM9.92836 17.8622C10.6599 17.8622 11.4133 17.7294 12.211 17.4633C13.0089 17.1974 13.7182 16.7098 14.3163 16.045C14.6711 15.624 14.937 15.1587 15.0698 14.6267C15.2029 14.0949 15.2915 13.452 15.2915 12.6986V11.7678C14.6194 11.6043 13.9387 11.4785 13.2525 11.3911C12.5616 11.3034 11.8659 11.2589 11.1694 11.258C9.68444 11.258 8.59868 11.5461 7.86744 12.1446C7.13594 12.743 6.78143 13.5851 6.78143 14.6931C6.78143 15.7346 7.04731 16.5103 7.6013 17.0423C8.13332 17.5963 8.90901 17.8622 9.92836 17.8622ZM27.7242 20.2557C27.3252 20.2557 27.0593 20.1893 26.8821 20.034C26.7048 19.9012 26.5495 19.5908 26.4167 19.1699L21.2089 2.03895C21.0755 1.59555 21.0091 1.30745 21.0091 1.15241C21.0091 0.797903 21.1864 0.598165 21.5412 0.598165H23.7129C24.1338 0.598165 24.4222 0.664831 24.5772 0.819864C24.7545 0.952936 24.8876 1.26326 25.0204 1.68418L28.7435 16.3553L32.2008 1.68418C32.3116 1.24104 32.4447 0.952936 32.6217 0.819864C32.7992 0.687053 33.1095 0.598426 33.5085 0.598426H35.2813C35.7022 0.598426 35.9906 0.664831 36.1676 0.819864C36.3451 0.952936 36.5001 1.26326 36.5887 1.68418L40.0904 16.5325L43.9242 1.68418C44.057 1.24104 44.2123 0.952936 44.3673 0.819864C44.5446 0.687053 44.8327 0.598426 45.2316 0.598426H47.2925C47.6473 0.598426 47.8468 0.775681 47.8468 1.15241C47.8468 1.26326 47.8246 1.37411 47.8023 1.50692C47.7801 1.63999 47.7359 1.81725 47.6473 2.06117L42.3061 19.1919C42.1733 19.6353 42.0183 19.9234 41.8408 20.0562C41.6635 20.1893 41.3754 20.2779 40.9989 20.2779H39.0931C38.6719 20.2779 38.3838 20.2115 38.2063 20.0562C38.029 19.9012 37.874 19.6131 37.7854 19.1699L34.3501 4.87555L30.9372 19.1474C30.8267 19.5908 30.6936 19.8789 30.5163 20.034C30.3391 20.1893 30.0287 20.2557 29.6301 20.2557H27.7239H27.7242ZM56.2018 20.8541C55.0494 20.8541 53.897 20.721 52.789 20.4552C51.6808 20.1893 50.8167 19.9009 50.2405 19.5689C49.8857 19.3691 49.6418 19.1477 49.5535 18.9482C49.4671 18.7526 49.4219 18.5414 49.4204 18.3276V17.1974C49.4204 16.732 49.5976 16.5103 49.9302 16.5103C50.0659 16.5108 50.2006 16.5333 50.3291 16.577C50.462 16.6214 50.6614 16.7098 50.8831 16.7984C51.6659 17.1427 52.483 17.4027 53.3208 17.5741C54.1889 17.7503 55.0724 17.8394 55.9582 17.84C57.3542 17.84 58.4403 17.5963 59.1937 17.1088C59.9472 16.6212 60.3461 15.9122 60.3461 15.0034C60.3461 14.383 60.1467 13.8732 59.7477 13.452C59.3487 13.0311 58.5953 12.6544 57.5095 12.2996L54.2959 11.3025C52.6782 10.7927 51.4816 10.0392 50.7501 9.04183C50.0188 8.06666 49.6421 6.98091 49.6421 5.82849C49.6421 4.89777 49.8416 4.07764 50.2405 3.36836C50.6392 2.65934 51.1712 2.03895 51.8361 1.55137C52.5009 1.04156 53.2544 0.664831 54.1409 0.398949C55.0272 0.133066 55.9579 0.0222168 56.9331 0.0222168C57.4206 0.0222168 57.9304 0.044439 58.418 0.110844C58.9278 0.177249 59.3932 0.265877 59.8586 0.354504C60.3017 0.465354 60.7229 0.576204 61.1218 0.709276C61.5208 0.842086 61.8308 0.975158 62.0525 1.10797C62.3629 1.28548 62.5843 1.46274 62.7174 1.66222C62.8504 1.83947 62.9169 2.08313 62.9169 2.39346V3.43503C62.9169 3.90039 62.7396 4.14431 62.407 4.14431C62.2298 4.14431 61.9417 4.05542 61.5652 3.87816C60.3017 3.30196 58.8834 3.01385 57.3101 3.01385C56.0468 3.01385 55.0494 3.21333 54.3623 3.6345C53.6755 4.05542 53.3208 4.6983 53.3208 5.60679C53.3208 6.22745 53.5425 6.75921 53.9856 7.18039C54.429 7.6013 55.2489 8.02248 56.4235 8.39921L59.5704 9.3966C61.166 9.9064 62.3184 10.6154 63.0055 11.5239C63.6925 12.4327 64.0251 13.4742 64.0251 14.6267C64.0251 15.5796 63.8253 16.4439 63.4486 17.1974C63.0499 17.9508 62.5179 18.6157 61.8308 19.1477C61.1438 19.7017 60.3239 20.1006 59.371 20.3888C58.3736 20.6991 57.332 20.8541 56.2018 20.8541V20.8541Z" fill="#252F3E"/>
<path d="M60.3903 31.6246C53.0993 37.01 42.5059 39.8688 33.3976 39.8688C20.6324 39.8688 9.13071 35.1483 0.443393 27.303C-0.243666 26.6827 0.376726 25.8406 1.1966 26.3279C10.5932 31.7799 22.1838 35.0819 34.1733 35.0819C42.2622 35.0819 51.149 33.3977 59.3268 29.9404C60.5456 29.3862 61.5872 30.7383 60.3903 31.6246V31.6246ZM63.4267 28.1674C62.4959 26.9708 57.2656 27.5911 54.8944 27.8793C54.1851 27.9681 54.0742 27.3475 54.7171 26.8821C58.8834 23.9566 65.7315 24.799 66.5291 25.7739C67.3271 26.7713 66.3074 33.6191 62.4071 36.8991C61.8089 37.4089 61.2327 37.143 61.4986 36.4782C62.3848 34.284 64.3574 29.342 63.4267 28.1674V28.1674Z" fill="#FF9900"/>
</g>
<defs>
<clipPath id="clip0_15_6">
<rect width="66.9281" height="40" fill="white"/>
</clipPath>
</defs>
</svg>
