<svg width="40" height="40" viewBox="0 0 40 40" fill="none" xmlns="http://www.w3.org/2000/svg">
<g clip-path="url(#clip0_15_46)">
<path d="M20 32.2735V39.9997C33.0956 39.9997 43.2921 27.3485 39.0082 13.6258C37.1362 7.62904 32.371 2.86383 26.3742 0.991779C12.6512 -3.29212 0 6.90442 0 20H7.74404L7.74591 19.9982C7.74717 11.7794 15.8802 5.42579 24.5209 8.56131C27.7221 9.72282 30.2753 12.2757 31.4378 15.4766C34.5736 24.1119 28.2291 32.2422 20.0178 32.2538V24.5526L12.2963 24.552L12.295 24.5532V32.2735H20ZM12.2935 38.2074H6.36173L6.36048 38.2058V32.2735H12.295V38.2061L12.2935 38.2074ZM6.36455 32.2735H1.392L1.38825 32.2722V27.3019L1.392 27.2981H6.36079L6.36455 27.2997V32.2735Z" fill="#0080FF"/>
</g>
<defs>
<clipPath id="clip0_15_46">
<rect width="40" height="40" fill="white"/>
</clipPath>
</defs>
</svg>
