<svg width="40" height="40" viewBox="0 0 40 40" fill="none" xmlns="http://www.w3.org/2000/svg">
<g clip-path="url(#clip0_15_39)">
<path d="M10.944 9.05865L17.52 22.2133L10.4666 24.5653L6.92529 10.4L10.944 9.06132V9.05865ZM24.7386 30.688L21.2826 23.7733L29.7013 20.9653L32.808 25.8453L24.7386 30.688ZM32.4906 17.2267L30.832 17.7787L29.4506 15.608L30.9893 15.2213L32.4906 17.224V17.2267Z" fill="#FF0000"/>
<path fill-rule="evenodd" clip-rule="evenodd" d="M0 6.66667C0 4.89856 0.702379 3.20286 1.95262 1.95262C3.20286 0.702379 4.89856 0 6.66667 0L33.3333 0C35.1014 0 36.7971 0.702379 38.0474 1.95262C39.2976 3.20286 40 4.89856 40 6.66667V33.3333C40 35.1014 39.2976 36.7971 38.0474 38.0474C36.7971 39.2976 35.1014 40 33.3333 40H6.66667C4.89856 40 3.20286 39.2976 1.95262 38.0474C0.702379 36.7971 0 35.1014 0 33.3333L0 6.66667ZM12.8107 6.832C12.6668 6.54548 12.4246 6.32038 12.1283 6.19794C11.832 6.07551 11.5015 6.06393 11.1973 6.16533L4.912 8.25867C4.59307 8.36488 4.32603 8.58764 4.16434 8.88234C4.00265 9.17704 3.95824 9.52195 4.04 9.848L8.22933 26.608C8.27358 26.7867 8.35435 26.9543 8.46656 27.1003C8.57876 27.2462 8.71998 27.3673 8.88131 27.456C9.04264 27.5447 9.22059 27.599 9.40394 27.6155C9.5873 27.632 9.77208 27.6104 9.94667 27.552L18.7253 24.624L22.9973 33.168C23.0795 33.3325 23.1948 33.4782 23.336 33.596C23.4772 33.7138 23.6412 33.8011 23.8178 33.8524C23.9944 33.9037 24.1796 33.918 24.362 33.8943C24.5443 33.8706 24.7198 33.8094 24.8773 33.7147L35.352 27.4293C35.5047 27.3378 35.6375 27.2167 35.7426 27.073C35.8478 26.9293 35.923 26.766 35.9641 26.5928C36.0051 26.4196 36.011 26.2399 35.9814 26.0643C35.9519 25.8888 35.8875 25.7209 35.792 25.5707L32.3093 20.096L35.088 19.1707C35.2887 19.104 35.4707 18.9905 35.6189 18.8396C35.7672 18.6887 35.8773 18.5047 35.9404 18.3027C36.0034 18.1008 36.0175 17.8868 35.9815 17.6784C35.9455 17.4699 35.8605 17.2731 35.7333 17.104L32.592 12.9147C32.4344 12.7044 32.2182 12.5454 31.9705 12.4577C31.7229 12.3699 31.4548 12.3573 31.2 12.4213L27.0107 13.4693C26.806 13.5208 26.6166 13.6202 26.4578 13.7592C26.299 13.8981 26.1755 14.0728 26.0974 14.2689C26.0193 14.4649 25.9889 14.6766 26.0086 14.8867C26.0283 15.0968 26.0975 15.2992 26.2107 15.4773L28.224 18.6453L20.08 21.3627L12.8107 6.832Z" fill="#FF0000"/>
</g>
<defs>
<clipPath id="clip0_15_39">
<rect width="40" height="40" fill="white"/>
</clipPath>
</defs>
</svg>
