<svg width="40" height="40" viewBox="0 0 40 40" fill="none" xmlns="http://www.w3.org/2000/svg">
<g clip-path="url(#clip0_15_44)">
<path d="M34.0818 34.0823H28.155V24.8006C28.155 22.5873 28.1155 19.7381 25.0725 19.7381C21.9857 19.7381 21.5133 22.1497 21.5133 24.6395V34.0817H15.5868V14.9948H21.2763V17.6033H21.356C21.9254 16.6297 22.7482 15.8287 23.7367 15.2858C24.7253 14.7428 25.8426 14.4782 26.9697 14.52C32.9768 14.52 34.0843 18.4712 34.0843 23.6115L34.0818 34.0823V34.0823ZM8.89925 12.3859C6.99972 12.3862 5.45957 10.8465 5.45925 8.94701C5.45894 7.04748 6.99847 5.50732 8.898 5.50701C10.7975 5.50654 12.3377 7.04623 12.338 8.94576C12.3382 9.85795 11.976 10.7329 11.3311 11.378C10.6862 12.0232 9.81145 12.3857 8.89925 12.3859M11.8627 34.0825H5.92972V14.9948H11.8625V34.0823L11.8627 34.0825ZM37.0364 0.00278916H2.9516C1.34066 -0.0153358 0.0195654 1.27513 -0.00012207 2.88607V37.1131C0.0189404 38.7248 1.33988 40.0165 2.95144 39.9997H37.0364C38.6514 40.0197 39.9775 38.7279 39.9999 37.1131V2.88341C39.9769 1.26935 38.6507 -0.0209608 37.0364 0.000132913" fill="#0A66C2"/>
</g>
<defs>
<clipPath id="clip0_15_44">
<rect width="40" height="40" fill="white"/>
</clipPath>
</defs>
</svg>
