<svg width="157" height="48" viewBox="0 0 157 48" fill="none" xmlns="http://www.w3.org/2000/svg">
<path d="M26.832 48C25.392 48 23.968 47.584 22.56 46.752C21.184 45.952 19.424 44.704 17.28 43.008C15.68 41.728 14.304 40.688 13.152 39.888C12.032 39.12 10.8 38.464 9.456 37.92C8.144 37.376 6.8 37.104 5.424 37.104C4.944 37.104 4.576 37.12 4.32 37.152L11.472 3.888C9.328 4.752 7.664 6.08 6.48 7.872C5.328 9.632 4.752 11.792 4.752 14.352C4.752 15.536 4.864 16.368 5.088 16.848C5.312 17.296 5.424 17.552 5.424 17.616C3.696 17.616 2.4 17.264 1.536 16.56C0.704 15.824 0.288 14.624 0.288 12.96C0.288 10.912 1.12 8.928 2.784 7.008C4.48 5.056 6.64 3.488 9.264 2.304C11.888 1.088 14.512 0.48 17.136 0.48C17.584 0.48 18.224 0.511999 19.056 0.575998L11.664 35.04C12.56 35.264 13.472 35.584 14.4 36C15.36 36.448 16.512 37.04 17.856 37.776C19.936 38.896 21.712 39.744 23.184 40.32C24.656 40.928 26.192 41.232 27.792 41.232C29.232 41.232 30.576 40.976 31.824 40.464C31.568 42.8 30.992 44.64 30.096 45.984C29.232 47.328 28.144 48 26.832 48ZM25.1955 36.192C22.8275 36.192 20.9555 35.584 19.5795 34.368C18.2035 33.152 17.5155 31.232 17.5155 28.608C17.5155 26.432 17.9635 24.016 18.8595 21.36C19.7555 18.704 21.1955 16.416 23.1795 14.496C25.1635 12.544 27.6595 11.568 30.6675 11.568C34.7635 11.568 36.8115 14.128 36.8115 19.248V19.296C36.9075 19.328 37.0835 19.344 37.3395 19.344C38.3955 19.344 39.6115 19.072 40.9875 18.528C42.3635 17.952 43.6115 17.264 44.7315 16.464L45.1635 17.76C44.2355 18.752 43.0195 19.6 41.5155 20.304C40.0435 20.976 38.4275 21.456 36.6675 21.744C36.4115 24.656 35.7555 27.2 34.6995 29.376C33.6435 31.552 32.2835 33.232 30.6195 34.416C28.9555 35.6 27.1475 36.192 25.1955 36.192ZM27.1155 31.872C27.8835 31.872 28.6515 31.44 29.4195 30.576C30.1875 29.68 30.8595 28.48 31.4355 26.976C32.0115 25.44 32.4275 23.744 32.6835 21.888C31.8195 21.696 31.3875 21.024 31.3875 19.872C31.3875 18.56 31.8835 17.696 32.8755 17.28C32.8115 16.224 32.6515 15.504 32.3955 15.12C32.1395 14.704 31.6915 14.496 31.0515 14.496C29.9955 14.496 28.9715 15.264 27.9795 16.8C26.9875 18.336 26.1875 20.176 25.5795 22.32C24.9715 24.464 24.6675 26.352 24.6675 27.984C24.6675 29.52 24.8435 30.56 25.1955 31.104C25.5475 31.616 26.1875 31.872 27.1155 31.872ZM47.7773 48C46.2413 48 44.9613 47.6 43.9373 46.8C42.9133 46 42.4013 44.848 42.4013 43.344C42.4013 41.52 43.1373 40.048 44.6093 38.928C46.0813 37.84 47.9533 36.928 50.2253 36.192L50.8013 33.648C49.1693 35.408 47.2493 36.288 45.0413 36.288C43.2173 36.288 41.6973 35.664 40.4813 34.416C39.2652 33.168 38.6572 31.216 38.6572 28.56C38.6572 26.192 39.1213 23.712 40.0493 21.12C41.0093 18.496 42.4173 16.288 44.2733 14.496C46.1613 12.672 48.4013 11.76 50.9933 11.76C52.3053 11.76 53.2813 11.984 53.9213 12.432C54.5613 12.88 54.8813 13.472 54.8813 14.208V14.496L55.4093 12H62.3213L57.5693 34.272C59.1053 33.76 60.3373 32.992 61.2653 31.968C62.1933 30.944 62.9773 29.424 63.6173 27.408H65.6333C64.7693 30.256 63.6013 32.352 62.1293 33.696C60.6573 35.008 58.9933 35.904 57.1373 36.384L56.4173 39.84C55.7773 42.944 54.6733 45.072 53.1053 46.224C51.5373 47.408 49.7613 48 47.7773 48ZM48.1613 31.632C48.8973 31.632 49.6493 31.296 50.4173 30.624C51.1853 29.952 51.7133 29.04 52.0013 27.888L54.4493 16.512C54.4493 16.128 54.2893 15.744 53.9693 15.36C53.6493 14.944 53.1533 14.736 52.4813 14.736C51.2013 14.736 50.0493 15.488 49.0253 16.992C48.0013 18.464 47.2013 20.256 46.6253 22.368C46.0493 24.448 45.7613 26.288 45.7613 27.888C45.7613 29.488 45.9853 30.512 46.4333 30.96C46.9133 31.408 47.4893 31.632 48.1613 31.632ZM46.6733 44.256C47.2173 44.256 47.7453 43.888 48.2573 43.152C48.7693 42.416 49.1693 41.36 49.4573 39.984L49.7453 38.592C46.6093 39.744 45.0413 41.104 45.0413 42.672C45.0413 43.088 45.1853 43.456 45.4733 43.776C45.7613 44.096 46.1613 44.256 46.6733 44.256ZM70.6174 36.192C68.2494 36.192 66.3774 35.584 65.0014 34.368C63.6254 33.152 62.9374 31.232 62.9374 28.608C62.9374 26.432 63.3854 24.016 64.2814 21.36C65.1774 18.704 66.6174 16.416 68.6014 14.496C70.5854 12.544 73.0814 11.568 76.0894 11.568C80.1854 11.568 82.2334 14.128 82.2334 19.248V19.296C82.3294 19.328 82.5054 19.344 82.7614 19.344C83.8174 19.344 85.0334 19.072 86.4094 18.528C87.7854 17.952 89.0334 17.264 90.1534 16.464L90.5854 17.76C89.6574 18.752 88.4414 19.6 86.9374 20.304C85.4654 20.976 83.8494 21.456 82.0894 21.744C81.8334 24.656 81.1774 27.2 80.1214 29.376C79.0654 31.552 77.7054 33.232 76.0414 34.416C74.3774 35.6 72.5694 36.192 70.6174 36.192ZM72.5374 31.872C73.3054 31.872 74.0734 31.44 74.8414 30.576C75.6094 29.68 76.2814 28.48 76.8574 26.976C77.4334 25.44 77.8494 23.744 78.1054 21.888C77.2414 21.696 76.8094 21.024 76.8094 19.872C76.8094 18.56 77.3054 17.696 78.2974 17.28C78.2334 16.224 78.0734 15.504 77.8174 15.12C77.5614 14.704 77.1134 14.496 76.4734 14.496C75.4174 14.496 74.3934 15.264 73.4014 16.8C72.4094 18.336 71.6094 20.176 71.0014 22.32C70.3934 24.464 70.0894 26.352 70.0894 27.984C70.0894 29.52 70.2654 30.56 70.6174 31.104C70.9694 31.616 71.6094 31.872 72.5374 31.872ZM89.4551 36.288C87.9191 36.288 86.6711 35.808 85.7111 34.848C84.7831 33.888 84.3191 32.448 84.3191 30.528C84.3191 29.728 84.4471 28.688 84.7031 27.408L87.5831 13.92H85.9991L86.3831 12H87.9671L89.4071 5.376L96.5111 4.416L94.8791 12H97.7591L97.3751 13.92H94.4951L91.4231 28.32C91.2951 28.8 91.2311 29.312 91.2311 29.856C91.2311 30.496 91.3751 30.96 91.6631 31.248C91.9831 31.504 92.4951 31.632 93.1991 31.632C94.1271 31.632 94.9911 31.248 95.7911 30.48C96.5911 29.68 97.1671 28.656 97.5191 27.408H99.5351C98.3511 30.864 96.8311 33.216 94.9751 34.464C93.1191 35.68 91.2791 36.288 89.4551 36.288ZM105.516 9.408C104.46 9.408 103.564 9.04 102.828 8.304C102.092 7.568 101.724 6.672 101.724 5.616C101.724 4.56 102.092 3.664 102.828 2.928C103.564 2.16 104.46 1.776 105.516 1.776C106.572 1.776 107.468 2.16 108.204 2.928C108.972 3.664 109.356 4.56 109.356 5.616C109.356 6.672 108.972 7.568 108.204 8.304C107.468 9.04 106.572 9.408 105.516 9.408ZM102.252 36.288C100.716 36.288 99.468 35.808 98.508 34.848C97.58 33.888 97.116 32.448 97.116 30.528C97.116 29.728 97.244 28.688 97.5 27.408L100.764 12H107.676L104.22 28.32C104.092 28.8 104.028 29.312 104.028 29.856C104.028 30.496 104.172 30.96 104.46 31.248C104.78 31.504 105.292 31.632 105.996 31.632C106.924 31.632 107.788 31.248 108.588 30.48C109.388 29.68 109.964 28.656 110.316 27.408H112.332C111.148 30.864 109.628 33.216 107.772 34.464C105.916 35.68 104.076 36.288 102.252 36.288ZM113.945 10.224H120.857L120.089 13.824C121.689 12.448 123.561 11.76 125.705 11.76C127.497 11.76 128.921 12.352 129.977 13.536C131.033 14.72 131.561 16.656 131.561 19.344C131.561 21.872 131.193 24.432 130.457 27.024C129.721 29.584 128.473 31.776 126.713 33.6C124.953 35.392 122.633 36.288 119.753 36.288C117.705 36.288 116.345 35.712 115.673 34.56L113.177 46.272L105.929 48L113.945 10.224ZM118.265 32.112C119.801 32.112 121.065 31.392 122.057 29.952C123.081 28.512 123.817 26.8 124.265 24.816C124.745 22.8 124.985 20.928 124.985 19.2C124.985 16.544 124.185 15.216 122.585 15.216C122.009 15.216 121.417 15.424 120.809 15.84C120.233 16.256 119.721 16.832 119.273 17.568L116.441 31.008C116.697 31.744 117.305 32.112 118.265 32.112ZM139.758 36.192C137.39 36.192 135.518 35.584 134.142 34.368C132.766 33.152 132.078 31.232 132.078 28.608C132.078 26.4 132.51 23.984 133.374 21.36C134.238 18.704 135.646 16.416 137.598 14.496C139.55 12.544 142.046 11.568 145.086 11.568C148.862 11.568 150.894 13.728 151.182 18.048C151.886 17.888 152.51 17.504 153.054 16.896C153.598 16.256 154.11 15.536 154.59 14.736H156.126C155.262 16.464 154.494 17.824 153.822 18.816C153.15 19.776 152.27 20.56 151.182 21.168C150.99 24.176 150.366 26.816 149.31 29.088C148.286 31.36 146.942 33.12 145.278 34.368C143.614 35.584 141.774 36.192 139.758 36.192ZM141.678 31.872C142.862 31.872 143.966 30.912 144.99 28.992C146.014 27.072 146.718 24.704 147.102 21.888C146.334 21.6 145.95 20.88 145.95 19.728C145.95 18.48 146.398 17.648 147.294 17.232C147.23 16.208 147.054 15.504 146.766 15.12C146.51 14.704 146.078 14.496 145.47 14.496C144.414 14.496 143.406 15.264 142.446 16.8C141.486 18.304 140.702 20.144 140.094 22.32C139.518 24.464 139.23 26.352 139.23 27.984C139.23 29.52 139.406 30.56 139.758 31.104C140.11 31.616 140.75 31.872 141.678 31.872Z" fill="#555555"/>
</svg>
