<svg width="76" height="40" viewBox="0 0 76 40" fill="none" xmlns="http://www.w3.org/2000/svg">
<g clip-path="url(#clip0_15_20)">
<path d="M37.9259 39.8815C58.8718 39.8815 75.8519 30.9537 75.8519 19.9407C75.8519 8.92777 58.8718 0 37.9259 0C16.98 0 0 8.92777 0 19.9407C0 30.9537 16.98 39.8815 37.9259 39.8815Z" fill="url(#paint0_radial_15_20)"/>
<path d="M37.9259 38.4C58.0536 38.4 74.3703 30.1355 74.3703 19.9408C74.3703 9.746 58.0536 1.48151 37.9259 1.48151C17.7982 1.48151 1.48145 9.746 1.48145 19.9408C1.48145 30.1355 17.7982 38.4 37.9259 38.4Z" fill="#6181B6"/>
<path d="M45.3037 25.926L47.1111 16.6223C47.5259 14.5185 47.1704 12.9482 46.1037 11.9704C45.0667 11.0223 43.2889 10.5482 40.6815 10.5482H37.5407L38.4296 5.92595C38.4593 5.74818 38.4296 5.5704 38.3111 5.42225C38.1926 5.2741 38.0444 5.21484 37.8667 5.21484H33.5407C33.2444 5.21484 33.0074 5.42225 32.9481 5.68892L31.0222 15.5556C30.8444 14.4297 30.4296 13.4815 29.7185 12.7111C28.4444 11.2593 26.4593 10.5185 23.763 10.5185H15.437C15.1407 10.5185 14.9037 10.726 14.8444 10.9926L10.963 31.0223C10.9333 31.2 10.963 31.3778 11.0815 31.526C11.2 31.6741 11.3481 31.7334 11.5259 31.7334H15.8815C16.1778 31.7334 16.4148 31.526 16.4741 31.2593L17.4222 26.4297H20.6518C22.3407 26.4297 23.7926 26.2519 24.8889 25.8963C26.0444 25.5111 27.0815 24.8889 28 24.0297C28.7407 23.3482 29.363 22.5778 29.837 21.7482L29.0667 25.7482C29.037 25.926 29.0667 26.1037 29.1852 26.2519C29.3037 26.4 29.4518 26.4593 29.6296 26.4593H33.9555C34.2518 26.4593 34.4889 26.2519 34.5481 25.9852L36.6815 15.0223H39.6444C40.9185 15.0223 41.2741 15.2593 41.3926 15.3778C41.4815 15.4667 41.6593 15.8223 41.4518 16.9185L39.7333 25.7778C39.7037 25.9556 39.7333 26.1334 39.8518 26.2815C39.9704 26.4297 40.1185 26.4889 40.2963 26.4889H44.7407C45.0074 26.4 45.2444 26.1926 45.3037 25.926ZM25.2741 18.2223C25.0074 19.6148 24.5037 20.6223 23.763 21.1852C23.0222 21.7482 21.8074 22.0445 20.2074 22.0445H18.2815L19.6741 14.8741H22.163C24 14.8741 24.7407 15.2593 25.037 15.5852C25.4222 16.0593 25.5111 16.9778 25.2741 18.2223V18.2223ZM63.7926 12.7111C62.5185 11.2593 60.5333 10.5185 57.837 10.5185H49.4518C49.1555 10.5185 48.9185 10.726 48.8593 10.9926L44.9778 30.9926C44.9481 31.1704 44.9778 31.3482 45.0963 31.4963C45.2148 31.6445 45.363 31.7037 45.5407 31.7037H49.8963C50.1926 31.7037 50.4296 31.4963 50.4889 31.2297L51.437 26.4H54.6667C56.3556 26.4 57.8074 26.2223 58.9037 25.8667C60.0593 25.4815 61.0963 24.8593 62.0148 24C62.7852 23.2889 63.437 22.4889 63.9111 21.6297C64.3852 20.7704 64.7407 19.8223 64.9481 18.7852C65.4518 16.2074 65.0667 14.1926 63.7926 12.7111V12.7111ZM59.2593 18.2223C58.9926 19.6148 58.4889 20.6223 57.7481 21.1852C57.0074 21.7482 55.7926 22.0445 54.1926 22.0445H52.2667L53.6593 14.8741H56.1481C57.9852 14.8741 58.7259 15.2593 59.0222 15.5852C59.437 16.0593 59.5259 16.9778 59.2593 18.2223Z" fill="white"/>
<path d="M22.163 14.2815C23.8222 14.2815 24.9185 14.5778 25.4815 15.2C26.0444 15.8222 26.163 16.8593 25.8667 18.3408C25.5704 19.8815 24.9778 21.0074 24.1185 21.6593C23.2592 22.3111 21.9555 22.6371 20.2074 22.6371H17.5704L19.2 14.2815H22.163V14.2815ZM11.5555 31.1111H15.9111L16.9481 25.8074H20.6815C22.3407 25.8074 23.6741 25.6297 24.7407 25.2741C25.8074 24.9185 26.7555 24.3556 27.6444 23.526C28.3852 22.8445 28.9778 22.1037 29.4222 21.3037C29.8667 20.5037 30.1926 19.6148 30.3704 18.6371C30.8444 16.2667 30.4889 14.4297 29.3333 13.0963C28.1778 11.763 26.3407 11.1111 23.8222 11.1111H15.437L11.5555 31.1111ZM33.5704 5.80743H37.8963L36.8592 11.1111H40.7111C43.1407 11.1111 44.8 11.526 45.7185 12.3852C46.637 13.2445 46.9037 14.6074 46.5481 16.5037L44.7407 25.8074H40.3555L42.0741 16.9482C42.2815 15.9408 42.1926 15.2593 41.8667 14.9037C41.5407 14.5482 40.8 14.3408 39.7037 14.3408H36.237L34.0148 25.8074H29.6889L33.5704 5.80743ZM56.1481 14.2815C57.8074 14.2815 58.9037 14.5778 59.4667 15.2C60.0296 15.8222 60.1481 16.8593 59.8518 18.3408C59.5555 19.8815 58.963 21.0074 58.1037 21.6593C57.2444 22.3111 55.9407 22.6371 54.1926 22.6371H51.5555L53.1852 14.2815H56.1481V14.2815ZM45.5407 31.1111H49.8963L50.9333 25.8074H54.6667C56.3259 25.8074 57.6592 25.6297 58.7259 25.2741C59.7926 24.9185 60.7407 24.3556 61.6296 23.526C62.3704 22.8445 62.9629 22.1037 63.4074 21.3037C63.8518 20.5037 64.1778 19.6148 64.3555 18.6371C64.8296 16.2667 64.4741 14.4297 63.3185 13.0963C62.1629 11.763 60.3259 11.1111 57.8074 11.1111H49.4222L45.5407 31.1111Z" fill="#000004"/>
</g>
<defs>
<radialGradient id="paint0_radial_15_20" cx="0" cy="0" r="1" gradientUnits="userSpaceOnUse" gradientTransform="translate(22.7708 7.0126) scale(49.806 49.806)">
<stop stop-color="white"/>
<stop offset="0.5" stop-color="#4C6B97"/>
<stop offset="1" stop-color="#231F20"/>
</radialGradient>
<clipPath id="clip0_15_20">
<rect width="75.8519" height="40" fill="white"/>
</clipPath>
</defs>
</svg>
